<svg xmlns="http://www.w3.org/2000/svg" viewBox="0 0 800 450" width="800" height="450" class="fig" role="img" aria-labelledby="t d">
<title id="t">Diphtheria in Haifa, 1947</title><desc id="d">Bar chart of monthly register admissions with press report-days as ticks beneath and uncovered months shaded.</desc>
<style>
  .fig { font-family: 'Iowan Old Style', Palatino, Georgia, serif; }
  .surface { fill: #fcfcfb; }
  .ink     { fill: #0b0b0b; }
  .ink-2   { fill: #52514e; }
  .ink-3   { fill: #898781; }
  .rule    { stroke: #d9d8d2; stroke-width: 1; fill: none; }
  .rule-0  { stroke: #898781; stroke-width: 1; fill: none; }
  .reg     { fill: #2a78d6; }
  .reg-s   { stroke: #2a78d6; fill: none; }
  .press   { fill: #eb6834; }
  .absent  { fill: #dcdbd5; }
  .ring    { stroke: #fcfcfb; stroke-width: 1.5; }
  .on-reg  { fill: #ffffff; }
  .press-s { stroke: #eb6834; stroke-width: 2.5; }
</style>
<rect width="800" height="450" class="surface"/>
<text x="38.0" y="32.0" class="ink" font-size="15" text-anchor="start" font-weight="600">Figure C · Diphtheria in Haifa, 1947</text>
<text x="38.0" y="52.0" class="ink-2" font-size="11.5" text-anchor="start">The register’s admissions month by month, the press report-days beneath, and the months the register does not cover.</text>
<text x="38.0" y="68.0" class="ink-3" font-size="10.5" text-anchor="start">Press ticks include the weaker paragraph tier, so the months the register cannot cover are not left artificially empty.</text>
<rect x="92.0" y="100" width="56.2" height="248" class="absent" opacity="0.55"/>
<text x="120.1" y="317.0" class="ink-3" font-size="10.5" text-anchor="middle">Jan</text>
<rect x="148.2" y="100" width="56.2" height="248" class="absent" opacity="0.55"/>
<text x="176.2" y="317.0" class="ink-3" font-size="10.5" text-anchor="middle">Feb</text>
<rect x="204.3" y="100" width="56.2" height="248" class="absent" opacity="0.55"/>
<text x="232.4" y="317.0" class="ink-3" font-size="10.5" text-anchor="middle">Mar</text>
<text x="288.6" y="317.0" class="ink-3" font-size="10.5" text-anchor="middle">Apr</text>
<text x="344.7" y="317.0" class="ink-3" font-size="10.5" text-anchor="middle">May</text>
<text x="400.9" y="317.0" class="ink-3" font-size="10.5" text-anchor="middle">Jun</text>
<rect x="429.0" y="100" width="56.2" height="248" class="absent" opacity="0.55"/>
<text x="457.1" y="317.0" class="ink-3" font-size="10.5" text-anchor="middle">Jul</text>
<rect x="485.2" y="100" width="56.2" height="248" class="absent" opacity="0.55"/>
<text x="513.2" y="317.0" class="ink-3" font-size="10.5" text-anchor="middle">Aug</text>
<text x="569.4" y="317.0" class="ink-3" font-size="10.5" text-anchor="middle">Sep</text>
<text x="625.6" y="317.0" class="ink-3" font-size="10.5" text-anchor="middle">Oct</text>
<rect x="653.7" y="100" width="56.2" height="248" class="absent" opacity="0.55"/>
<text x="681.8" y="317.0" class="ink-3" font-size="10.5" text-anchor="middle">Nov</text>
<rect x="709.8" y="100" width="56.2" height="248" class="absent" opacity="0.55"/>
<text x="737.9" y="317.0" class="ink-3" font-size="10.5" text-anchor="middle">Dec</text>
<line x1="92" y1="300" x2="766" y2="300" class="rule-0"/>
<line x1="568.5" y1="92" x2="568.5" y2="300" class="reg-s" stroke-width="1.5" stroke-dasharray="3 3"/>
<text x="558.5" y="88.0" class="ink-2" font-size="10.5" text-anchor="end">the surge begins, 15 Sep</text>
<rect x="266.5" y="281.6" width="44.2" height="18.4" class="reg" rx="4"/>
<text x="288.6" y="274.6" class="ink" font-size="11.5" text-anchor="middle">2</text>
<rect x="322.7" y="244.7" width="44.2" height="55.3" class="reg" rx="4"/>
<text x="344.7" y="264.7" class="on-reg" font-size="11.5" text-anchor="middle" font-weight="600">6</text>
<rect x="547.3" y="134.0" width="44.2" height="166.0" class="reg" rx="4"/>
<text x="569.4" y="154.0" class="on-reg" font-size="11.5" text-anchor="middle" font-weight="600">18</text>
<rect x="603.5" y="161.7" width="44.2" height="138.3" class="reg" rx="4"/>
<text x="625.6" y="181.7" class="on-reg" font-size="11.5" text-anchor="middle" font-weight="600">15</text>
<line x1="506.0" y1="343" x2="506.0" y2="361" class="press-s"/>
<line x1="533.2" y1="343" x2="533.2" y2="361" class="press-s"/>
<line x1="535.0" y1="343" x2="535.0" y2="361" class="press-s"/>
<line x1="536.8" y1="343" x2="536.8" y2="361" class="press-s"/>
<line x1="553.5" y1="343" x2="553.5" y2="361" class="press-s"/>
<line x1="634.6" y1="343" x2="634.6" y2="361" class="press-s"/>
<line x1="636.5" y1="343" x2="636.5" y2="361" class="press-s"/>
<line x1="638.3" y1="343" x2="638.3" y2="361" class="press-s"/>
<line x1="649.1" y1="343" x2="649.1" y2="361" class="press-s"/>
<line x1="656.5" y1="343" x2="656.5" y2="361" class="press-s"/>
<line x1="664.0" y1="343" x2="664.0" y2="361" class="press-s"/>
<line x1="677.1" y1="343" x2="677.1" y2="361" class="press-s"/>
<line x1="678.9" y1="343" x2="678.9" y2="361" class="press-s"/>
<line x1="682.7" y1="343" x2="682.7" y2="361" class="press-s"/>
<line x1="688.3" y1="343" x2="688.3" y2="361" class="press-s"/>
<line x1="690.2" y1="343" x2="690.2" y2="361" class="press-s"/>
<line x1="697.7" y1="343" x2="697.7" y2="361" class="press-s"/>
<line x1="703.3" y1="343" x2="703.3" y2="361" class="press-s"/>
<text x="82.0" y="356.0" class="press" font-size="11.5" text-anchor="end" font-weight="600">press</text>
<text x="82.0" y="116.0" class="reg" font-size="11.5" text-anchor="end" font-weight="600">register</text>
<text x="92.0" y="388.0" class="ink-2" font-size="11" text-anchor="start">The paper speaks in October, five weeks in — and again in August and November, where the register cannot answer.</text>
<text x="92.0" y="408.0" class="ink-3" font-size="10.5" text-anchor="start">Months shaded grey have no surviving register pages; an empty month there is an absence of evidence, not of disease.</text>
</svg>
